<svg id="Layer_1" data-name="Layer 1" xmlns="http://www.w3.org/2000/svg" viewBox="0 0 512 512"><title>users</title><path d="M512,256c0,141.38-114.61,256-256,256S0,397.39,0,256,114.62,0,256,0,512,114.62,512,256Z" fill="#404041"/><path d="M28,139.52,139.52,28A257.1,257.1,0,0,0,28,139.52Z" fill="#4d4d4f"/><path d="M179.06,11.77,11.77,179.06a254.14,254.14,0,0,0-6.43,24.69L203.75,5.34A253.94,253.94,0,0,0,179.06,11.77Z" fill="#4d4d4f"/><path d="M231.24,1.2l-230,230Q.27,240.84.07,250.64L250.63.07Q240.84.27,231.24,1.2Z" fill="#4d4d4f"/><path d="M273.44.6.6,273.43q.56,8.39,1.66,16.63L290.05,2.26Q281.83,1.17,273.44.6Z" fill="#4d4d4f"/><path d="M309.94,5.71,5.71,309.95q1.59,7.41,3.6,14.66L324.6,9.31Q317.35,7.3,309.94,5.71Z" fill="#4d4d4f"/><path d="M342.32,14.93,14.94,342.33Q17.32,349,20,355.47L355.46,20Q349,17.31,342.32,14.93Z" fill="#4d4d4f"/><path d="M371.41,27.44l-344,344q3,6,6.39,11.86L383.28,33.83Q377.44,30.48,371.41,27.44Z" fill="#4d4d4f"/><path d="M397.69,42.77,42.77,397.69q3.63,5.46,7.53,10.72L408.42,50.31Q403.16,46.4,397.69,42.77Z" fill="#4d4d4f"/><path d="M421.43,60.64,60.65,421.43q4.18,4.93,8.6,9.65L431.08,69.25Q426.36,64.82,421.43,60.64Z" fill="#4d4d4f"/><path d="M442.75,80.91,80.92,442.75q4.72,4.42,9.65,8.6L451.37,90.58Q447.18,85.64,442.75,80.91Z" fill="#4d4d4f"/><path d="M461.69,103.58,103.58,461.69q5.26,3.91,10.73,7.54L469.23,114.31Q465.59,108.85,461.69,103.58Z" fill="#4d4d4f"/><path d="M478.17,128.72,128.71,478.16q5.84,3.35,11.88,6.4l344-344Q481.51,134.56,478.17,128.72Z" fill="#4d4d4f"/><path d="M492,156.53,156.53,492q6.48,2.73,13.14,5.11L497.06,169.67Q494.68,163,492,156.53Z" fill="#4d4d4f"/><path d="M502.69,187.41,187.4,502.69q7.24,2,14.66,3.6L506.29,202.06Q504.7,194.65,502.69,187.41Z" fill="#4d4d4f"/><path d="M509.74,222,221.94,509.74q8.23,1.09,16.62,1.66L511.4,238.56Q510.83,230.18,509.74,222Z" fill="#4d4d4f"/><path d="M510.81,280.75q.92-9.59,1.13-19.38L261.37,511.93q9.79-.2,19.39-1.13Z" fill="#4d4d4f"/><path d="M332.92,500.23,500.23,332.92a254,254,0,0,0,6.42-24.68L308.23,506.66A254.22,254.22,0,0,0,332.92,500.23Z" fill="#4d4d4f"/><path d="M484,372.49,372.48,484A257.12,257.12,0,0,0,484,372.49Z" fill="#4d4d4f"/><path d="M313.75,359.65s-19.77,10.09-36.59,8.22a375.58,375.58,0,0,1-62,5.62A287.39,287.39,0,0,1,159,367.87c-.91.11-1.8.16-2.72.21-5.06.39-15.42-.25-33.24-7.37,0,0,0-.27,0-.77l-.6-.29c-10.4-28.15,6.15-82.29,19.78-83.35l.47,0a12.47,12.47,0,0,1,2.29-.49c3.29-.39,6.19-.83,8.77-1.26a163.25,163.25,0,0,0,17.28-4.82,4.78,4.78,0,0,0,.89-.55s-.25-2.13,16.29-12c0,0,1.07-12-.26-17.53s-4.79-10.09-6.41-18.57c0,0-5.34.8-8.81-10.63s1.6-16.45,1.6-15.66V194s-1.6-17.26-1.33-23.1,6.12-21,19.22-23.09c0,0,28.86-21.43,57.34.81,18,14.06,14,46.44,14,46.44s4.8,3.19,1.87,13.55-6.94,11.68-9.33,12.75c0,0-2.69,13.53-9.08,21.75,0,0-.29,12,.25,13.81,0,0,16,8.76,16.29,12.22,0,0,16.82,6.1,30.44,7.17S324.15,331.51,313.75,359.65Zm61.15-78.5c-10.59-.83-23.64-5.57-23.64-5.57-.23-2.68-12.67-9.49-12.67-9.49-.4-1.45-.22-10.74-.22-10.74,5-6.39,7.07-16.91,7.07-16.91,1.87-.83,5-1.86,7.26-9.91S351.25,218,351.25,218s3.12-25.16-10.86-36.08c-22.14-17.29-44.55-.64-44.55-.64-10.17,1.65-14.73,13.41-14.94,17.95s1,17.95,1,17.95v.62c0-.62-3.94,3.29-1.24,12.17s6.84,8.26,6.84,8.26c1.25,6.6,3.93,10.1,5,14.43.89,3.75.4,11.2.25,13.12,1.95.34,3.86.6,5.72.76,6.19.48,11.84,4.66,16.8,12.38,10.31,16.1,19.32,51.41,13.37,77.25a281,281,0,0,0,33.18-3.88c13.07,1.47,28.43-6.38,28.43-6.38C398.36,324.05,385.48,282,374.9,281.15Z" fill="#fff"/></svg>