<?xml version="1.0" encoding="iso-8859-1"?>
<!-- Generator: Adobe Illustrator 18.1.1, SVG Export Plug-In . SVG Version: 6.00 Build 0)  -->
<svg xmlns="http://www.w3.org/2000/svg" xmlns:xlink="http://www.w3.org/1999/xlink" version="1.1" id="Capa_1" x="0px" y="0px" viewBox="0 0 611.997 611.997" style="enable-background:new 0 0 611.997 611.997;" xml:space="preserve" width="512px" height="512px">
<g>
	<path d="M189.18,274.266H17.53c-9.666,0-17.53-7.863-17.53-17.53v-1.09c0-9.666,7.863-17.53,17.53-17.53h188.276   C198.39,249.029,192.729,261.215,189.18,274.266z M184.934,305.997c0-6.142,0.467-12.174,1.355-18.07H63.818   c-9.664,0-17.527,7.863-17.527,17.527v1.087c0,9.666,7.863,17.53,17.527,17.53h122.469   C185.401,318.174,184.934,312.139,184.934,305.997z M508.61,337.731h-85.792c-3.549,13.049-9.21,25.234-16.625,36.144H508.61   c9.666,0,17.53-7.863,17.53-17.527v-1.087C526.139,345.594,518.276,337.731,508.61,337.731z M594.47,238.117H406.192   c7.415,10.912,13.076,23.098,16.625,36.146h171.65c9.666,0,17.529-7.863,17.529-17.53v-1.087   C612,245.98,604.137,238.117,594.47,238.117z M189.183,337.731h-85.795c-9.664,0-17.527,7.863-17.527,17.53v1.087   c0,9.664,7.863,17.527,17.527,17.527h102.418C198.39,362.968,192.732,350.78,189.183,337.731z M548.18,287.927H425.713   c0.885,5.899,1.355,11.931,1.355,18.07c0,6.142-0.467,12.177-1.355,18.073H548.18c9.666,0,17.53-7.863,17.53-17.53v-1.087   C565.709,295.79,557.846,287.927,548.18,287.927z M399.747,305.997c0,51.692-42.056,93.748-93.748,93.748   s-93.746-42.056-93.746-93.748s42.053-93.746,93.746-93.746S399.747,254.305,399.747,305.997z M371.363,276.823   c-1.486-2.872-4.516-4.656-7.91-4.656c-1.199,0-2.374,0.224-3.486,0.664l-29.281,11.628l-32.573-5.997   c-5.052-0.937-10.287-0.413-15.057,1.478l-2.563,1.019c-0.94,0.374-1.596,1.235-1.708,2.238c-0.109,1.005,0.342,1.989,1.178,2.56   l17.835,12.177l-33.641,16.622l-12.606-6.664c-3.123-1.628-6.921-1.822-10.191-0.522c-0.817,0.325-1.426,1.022-1.642,1.877   c-0.213,0.852-0.005,1.757,0.563,2.429l12.877,15.248l-2.781,10.333c-0.268,0.997,0.052,2.063,0.822,2.751   c0.77,0.686,1.861,0.877,2.825,0.5l2.473-0.981c1.735-0.691,3.268-1.825,4.442-3.281l6.03-7.513l36.288-14.407l1.497,35.676   c0.038,0.883,0.5,1.697,1.243,2.178c0.448,0.29,0.967,0.44,1.486,0.44c0.342,0,0.683-0.063,1.008-0.191   c6.994-2.781,12.587-8.382,15.352-15.379l14.486-36.646l28.464-11.303c2.311-0.918,4.136-2.781,5.005-5.109   C372.669,281.665,372.513,279.045,371.363,276.823z" fill="#006DF0"/>
</g>
<g>
</g>
<g>
</g>
<g>
</g>
<g>
</g>
<g>
</g>
<g>
</g>
<g>
</g>
<g>
</g>
<g>
</g>
<g>
</g>
<g>
</g>
<g>
</g>
<g>
</g>
<g>
</g>
<g>
</g>
</svg>
