<?xml version="1.0" encoding="UTF-8" standalone="no"?>
<!-- Generator: Adobe Illustrator 18.1.1, SVG Export Plug-In . SVG Version: 6.00 Build 0)  -->

<svg
   xmlns:dc="http://purl.org/dc/elements/1.1/"
   xmlns:cc="http://creativecommons.org/ns#"
   xmlns:rdf="http://www.w3.org/1999/02/22-rdf-syntax-ns#"
   xmlns:svg="http://www.w3.org/2000/svg"
   xmlns="http://www.w3.org/2000/svg"
   xmlns:sodipodi="http://sodipodi.sourceforge.net/DTD/sodipodi-0.dtd"
   xmlns:inkscape="http://www.inkscape.org/namespaces/inkscape"
   version="1.1"
   id="Capa_1"
   x="0px"
   y="0px"
   viewBox="0 0 611.997 611.997"
   style="enable-background:new 0 0 611.997 611.997;"
   xml:space="preserve"
   width="512px"
   height="512px"
   inkscape:version="0.91 r13725"
   sodipodi:docname="vfrManual-iconě.svg"><metadata
     id="metadata41"><rdf:RDF><cc:Work
         rdf:about=""><dc:format>image/svg+xml</dc:format><dc:type
           rdf:resource="http://purl.org/dc/dcmitype/StillImage" /><dc:title></dc:title></cc:Work></rdf:RDF></metadata><defs
     id="defs39" /><sodipodi:namedview
     pagecolor="#ffffff"
     bordercolor="#666666"
     borderopacity="1"
     objecttolerance="10"
     gridtolerance="10"
     guidetolerance="10"
     inkscape:pageopacity="0"
     inkscape:pageshadow="2"
     inkscape:window-width="3840"
     inkscape:window-height="2081"
     id="namedview37"
     showgrid="false"
     inkscape:zoom="2"
     inkscape:cx="-96.93947"
     inkscape:cy="100.09082"
     inkscape:window-x="0"
     inkscape:window-y="0"
     inkscape:window-maximized="1"
     inkscape:current-layer="layer1" /><g
     id="g3"><path
       d="M189.18,274.266H17.53c-9.666,0-17.53-7.863-17.53-17.53v-1.09c0-9.666,7.863-17.53,17.53-17.53h188.276   C198.39,249.029,192.729,261.215,189.18,274.266z M184.934,305.997c0-6.142,0.467-12.174,1.355-18.07H63.818   c-9.664,0-17.527,7.863-17.527,17.527v1.087c0,9.666,7.863,17.53,17.527,17.53h122.469   C185.401,318.174,184.934,312.139,184.934,305.997z M508.61,337.731h-85.792c-3.549,13.049-9.21,25.234-16.625,36.144H508.61   c9.666,0,17.53-7.863,17.53-17.527v-1.087C526.139,345.594,518.276,337.731,508.61,337.731z M594.47,238.117H406.192   c7.415,10.912,13.076,23.098,16.625,36.146h171.65c9.666,0,17.529-7.863,17.529-17.53v-1.087   C612,245.98,604.137,238.117,594.47,238.117z M189.183,337.731h-85.795c-9.664,0-17.527,7.863-17.527,17.53v1.087   c0,9.664,7.863,17.527,17.527,17.527h102.418C198.39,362.968,192.732,350.78,189.183,337.731z M548.18,287.927H425.713   c0.885,5.899,1.355,11.931,1.355,18.07c0,6.142-0.467,12.177-1.355,18.073H548.18c9.666,0,17.53-7.863,17.53-17.53v-1.087   C565.709,295.79,557.846,287.927,548.18,287.927z M399.747,305.997c0,51.692-42.056,93.748-93.748,93.748   s-93.746-42.056-93.746-93.748s42.053-93.746,93.746-93.746S399.747,254.305,399.747,305.997z M371.363,276.823   c-1.486-2.872-4.516-4.656-7.91-4.656c-1.199,0-2.374,0.224-3.486,0.664l-29.281,11.628l-32.573-5.997   c-5.052-0.937-10.287-0.413-15.057,1.478l-2.563,1.019c-0.94,0.374-1.596,1.235-1.708,2.238c-0.109,1.005,0.342,1.989,1.178,2.56   l17.835,12.177l-33.641,16.622l-12.606-6.664c-3.123-1.628-6.921-1.822-10.191-0.522c-0.817,0.325-1.426,1.022-1.642,1.877   c-0.213,0.852-0.005,1.757,0.563,2.429l12.877,15.248l-2.781,10.333c-0.268,0.997,0.052,2.063,0.822,2.751   c0.77,0.686,1.861,0.877,2.825,0.5l2.473-0.981c1.735-0.691,3.268-1.825,4.442-3.281l6.03-7.513l36.288-14.407l1.497,35.676   c0.038,0.883,0.5,1.697,1.243,2.178c0.448,0.29,0.967,0.44,1.486,0.44c0.342,0,0.683-0.063,1.008-0.191   c6.994-2.781,12.587-8.382,15.352-15.379l14.486-36.646l28.464-11.303c2.311-0.918,4.136-2.781,5.005-5.109   C372.669,281.665,372.513,279.045,371.363,276.823z"
       fill="#3f51b5"
       id="path5" /></g><g
     id="g7" /><g
     id="g9" /><g
     id="g11" /><g
     id="g13" /><g
     id="g15" /><g
     id="g17" /><g
     id="g19" /><g
     id="g21" /><g
     id="g23" /><g
     id="g25" /><g
     id="g27" /><g
     id="g29" /><g
     id="g31" /><g
     id="g33" /><g
     id="g35" /><g
     inkscape:groupmode="layer"
     id="layer1"
     inkscape:label="Layer 1"><ellipse
       style="opacity:1;fill:#3f51b5;fill-opacity:1;stroke:none;stroke-width:1.08959365;stroke-miterlimit:4;stroke-dasharray:none;stroke-opacity:1"
       id="path4149"
       cx="305.99451"
       cy="306.10104"
       rx="93.799454"
       ry="93.51297" /><g
       id="g4228"
       transform="matrix(0.70710678,0.70710678,-0.70710678,0.70710678,304.21113,-125.74192)"><g
         style="fill:#ffffff;fill-opacity:1;stroke:#ffffff;stroke-opacity:1"
         transform="matrix(0.77610737,0,0,0.98497959,83.320327,-310.55477)"
         inkscape:label="Layer 1"
         id="layer1-3"><g
           id="g4199"
           style="fill:#ffffff;fill-opacity:1;stroke:#ffffff;stroke-opacity:1"><path
             inkscape:connector-curvature="0"
             id="path4151"
             d="m 286.73778,566.21824 1.02092,0.31601 0.63807,1.07443 0.51047,1.39044 0.12761,1.51685 1.53138,0.63201 0.70189,1.39044 0.63807,2.78089 1.14853,19.97178 74.59094,16.36929 1.65899,1.45363 0.51047,1.89606 0.19141,3.47611 -0.1276,4.67694 -0.8295,3.22329 -1.53138,1.13764 -1.97803,0.0631 -72.54911,0.0631 -1.33995,24.52233 -1.21235,11.75554 1.33997,1.58004 19.20604,2.21207 0.8614,0.56882 0.44666,1.35884 0.0638,2.87569 -0.12762,4.70853 -1.37185,1.89606 -1.81851,0.79002 -6.06172,1.42204 -7.17834,1.20083 -3.03086,0.53721 -0.9252,-0.18959 -0.76569,-0.37921 -0.44666,-1.26405 -0.38283,-1.45364 -0.51047,-1.07442 -0.51046,-0.0316 c 0,0 -0.66998,-0.1264 -0.70188,0.0316 -0.0319,0.158 -0.44666,8.21623 -0.44666,8.21623 l -0.79759,1.04284"
             style="fill:#ffffff;fill-opacity:1;fill-rule:evenodd;stroke:#ffffff;stroke-width:1.00585127;stroke-linecap:butt;stroke-linejoin:miter;stroke-miterlimit:4;stroke-dasharray:none;stroke-opacity:1" /><path
             inkscape:connector-curvature="0"
             id="path4151-3"
             d="m 288.37251,566.21025 -1.01546,0.31599 -0.63467,1.07435 -0.50773,1.39034 -0.12693,1.51672 -1.5232,0.63197 -0.69814,1.39033 -0.63465,2.78068 -1.14241,19.97028 -74.19248,16.36803 -1.65013,1.45353 -0.50773,1.89592 -0.19039,3.47584 0.12692,4.67659 0.82507,3.22305 1.52319,1.13754 1.96747,0.0631 72.16156,0.0631 1.33278,24.52048 1.20587,11.75464 -1.3328,1.57993 -19.10345,2.2119 -0.85681,0.56876 -0.44426,1.35875 -0.0634,2.87546 0.12694,4.7082 1.36452,1.89591 1.80879,0.78996 6.02934,1.42192 7.13999,1.20075 3.01468,0.53717 0.92026,-0.18959 0.76159,-0.37918 0.44427,-1.26393 0.3808,-1.45353 0.50773,-1.07437 0.50774,-0.0316 c 0,0 0.66641,-0.12639 0.69814,0.0316 0.0317,0.158 0.44426,8.21562 0.44426,8.21562 l 0.79333,1.04276"
             style="fill:#ffffff;fill-opacity:1;fill-rule:evenodd;stroke:#ffffff;stroke-width:1.00312304px;stroke-linecap:butt;stroke-linejoin:miter;stroke-opacity:1" /></g></g><g
         transform="matrix(0.99980191,0,0,1.5475195,-0.03719226,-131.7465)"
         style="fill:#ffffff;fill-opacity:1;stroke:#ffffff;stroke-opacity:1"
         id="g4206"><path
           style="fill:#ffffff;fill-opacity:1;fill-rule:evenodd;stroke:#ffffff;stroke-width:0.11953067;stroke-linecap:butt;stroke-linejoin:miter;stroke-miterlimit:4;stroke-dasharray:none;stroke-opacity:1"
           d="m 306.54552,246.86122 -12.31774,0.0405 12.31774,0.34441"
           id="path4189"
           inkscape:connector-curvature="0" /><path
           style="fill:#ffffff;fill-opacity:1;fill-rule:evenodd;stroke:#ffffff;stroke-width:0.11953067;stroke-linecap:butt;stroke-linejoin:miter;stroke-miterlimit:4;stroke-dasharray:none;stroke-opacity:1"
           d="m 306.52534,246.8625 12.31774,0.0405 -12.31774,0.34441"
           id="path4189-6"
           inkscape:connector-curvature="0" /></g></g><text
       xml:space="preserve"
       style="font-style:normal;font-weight:normal;font-size:47.8122673px;line-height:125%;font-family:sans-serif;letter-spacing:0px;word-spacing:0px;fill:#000000;fill-opacity:1;stroke:none;stroke-width:1px;stroke-linecap:butt;stroke-linejoin:miter;stroke-opacity:1"
       x="306.59619"
       y="189.45612"
       id="text4237"
       sodipodi:linespacing="125%"><tspan
         sodipodi:role="line"
         id="tspan4239"
         x="306.59619"
         y="189.45612"
         style="font-style:normal;font-variant:normal;font-weight:normal;font-stretch:normal;font-size:89.64800262px;line-height:125%;font-family:'Arial Black';-inkscape-font-specification:'Arial Black, Normal';text-align:center;writing-mode:lr-tb;text-anchor:middle;fill:#3f51b5;fill-opacity:1;stroke:#3f51b5;stroke-opacity:1">VFR</tspan></text>
<text
       xml:space="preserve"
       style="font-style:normal;font-weight:normal;font-size:47.8122673px;line-height:125%;font-family:sans-serif;letter-spacing:0px;word-spacing:0px;fill:#000000;fill-opacity:1;stroke:none;stroke-width:1px;stroke-linecap:butt;stroke-linejoin:miter;stroke-opacity:1"
       x="312.57269"
       y="434.49399"
       id="text4241"
       sodipodi:linespacing="125%"><tspan
         sodipodi:role="line"
         id="tspan4243"
         x="312.57269"
         y="434.49399"></tspan></text>
<text
       xml:space="preserve"
       style="font-style:normal;font-weight:normal;font-size:47.8122673px;line-height:125%;font-family:sans-serif;letter-spacing:0px;word-spacing:0px;fill:#000000;fill-opacity:1;stroke:none;stroke-width:1px;stroke-linecap:butt;stroke-linejoin:miter;stroke-opacity:1"
       x="302.17181"
       y="492.27905"
       id="text4237-3"
       sodipodi:linespacing="125%"><tspan
         sodipodi:role="line"
         id="tspan4239-8"
         x="302.17184"
         y="492.27905"
         style="font-style:normal;font-variant:normal;font-weight:normal;font-stretch:normal;font-size:89.64800262px;line-height:125%;font-family:'Arial Black';-inkscape-font-specification:'Arial Black, Normal';text-align:center;writing-mode:lr-tb;text-anchor:middle;fill:#3f51b5;fill-opacity:1;stroke:#3f51b5;stroke-width:1px;stroke-opacity:1">PŘÍRUČKA</tspan></text>
</g></svg>