<?xml version="1.0" encoding="UTF-8" standalone="no"?>
<!-- Created with Inkscape (http://www.inkscape.org/) -->

<svg
   xmlns:dc="http://purl.org/dc/elements/1.1/"
   xmlns:cc="http://creativecommons.org/ns#"
   xmlns:rdf="http://www.w3.org/1999/02/22-rdf-syntax-ns#"
   xmlns:svg="http://www.w3.org/2000/svg"
   xmlns="http://www.w3.org/2000/svg"
   xmlns:sodipodi="http://sodipodi.sourceforge.net/DTD/sodipodi-0.dtd"
   xmlns:inkscape="http://www.inkscape.org/namespaces/inkscape"
   width="210mm"
   height="297mm"
   viewBox="0 0 744.09448819 1052.3622047"
   id="svg2"
   version="1.1"
   inkscape:version="0.91 r13725"
   sodipodi:docname="zlin205obrys.svg">
  <defs
     id="defs4" />
  <sodipodi:namedview
     id="base"
     pagecolor="#ffffff"
     bordercolor="#666666"
     borderopacity="1.0"
     inkscape:pageopacity="0.0"
     inkscape:pageshadow="2"
     inkscape:zoom="5.6"
     inkscape:cx="137.77763"
     inkscape:cy="383.77641"
     inkscape:document-units="px"
     inkscape:current-layer="layer1"
     showgrid="false"
     inkscape:window-width="3840"
     inkscape:window-height="2081"
     inkscape:window-x="0"
     inkscape:window-y="0"
     inkscape:window-maximized="1" />
  <metadata
     id="metadata7">
    <rdf:RDF>
      <cc:Work
         rdf:about="">
        <dc:format>image/svg+xml</dc:format>
        <dc:type
           rdf:resource="http://purl.org/dc/dcmitype/StillImage" />
      </cc:Work>
    </rdf:RDF>
  </metadata>
  <g
     inkscape:label="Layer 1"
     inkscape:groupmode="layer"
     id="layer1">
    <g
       id="g4199"
       style="fill:none;fill-opacity:1">
      <path
         inkscape:connector-curvature="0"
         id="path4151"
         d="m 286.73778,566.21824 1.02092,0.31601 0.63807,1.07443 0.51047,1.39044 0.12761,1.51685 1.53138,0.63201 0.70189,1.39044 0.63807,2.78089 1.14853,19.97178 74.59094,16.36929 1.65899,1.45363 0.51047,1.89606 0.19141,3.47611 -0.1276,4.67694 -0.8295,3.22329 -1.53138,1.13764 -1.97803,0.0631 -72.54911,0.0631 -1.33995,24.52233 -1.21235,11.75554 1.33997,1.58004 19.20604,2.21207 0.8614,0.56882 0.44666,1.35884 0.0638,2.87569 -0.12762,4.70853 -1.37185,1.89606 -1.81851,0.79002 -6.06172,1.42204 -7.17834,1.20083 -3.03086,0.53721 -0.9252,-0.18959 -0.76569,-0.37921 -0.44666,-1.26405 -0.38283,-1.45364 -0.51047,-1.07442 -0.51046,-0.0316 c 0,0 -0.66998,-0.1264 -0.70188,0.0316 -0.0319,0.158 -0.44666,8.21623 -0.44666,8.21623 l -0.79759,1.04284"
         style="fill:none;fill-rule:evenodd;stroke:#000000;stroke-width:1.00585127;stroke-linecap:butt;stroke-linejoin:miter;stroke-miterlimit:4;stroke-dasharray:none;stroke-opacity:1;fill-opacity:1" />
      <path
         inkscape:connector-curvature="0"
         id="path4151-3"
         d="m 288.37251,566.21025 -1.01546,0.31599 -0.63467,1.07435 -0.50773,1.39034 -0.12693,1.51672 -1.5232,0.63197 -0.69814,1.39033 -0.63465,2.78068 -1.14241,19.97028 -74.19248,16.36803 -1.65013,1.45353 -0.50773,1.89592 -0.19039,3.47584 0.12692,4.67659 0.82507,3.22305 1.52319,1.13754 1.96747,0.0631 72.16156,0.0631 1.33278,24.52048 1.20587,11.75464 -1.3328,1.57993 -19.10345,2.2119 -0.85681,0.56876 -0.44426,1.35875 -0.0634,2.87546 0.12694,4.7082 1.36452,1.89591 1.80879,0.78996 6.02934,1.42192 7.13999,1.20075 3.01468,0.53717 0.92026,-0.18959 0.76159,-0.37918 0.44427,-1.26393 0.3808,-1.45353 0.50773,-1.07437 0.50774,-0.0316 c 0,0 0.66641,-0.12639 0.69814,0.0316 0.0317,0.158 0.44426,8.21562 0.44426,8.21562 l 0.79333,1.04276"
         style="fill:none;fill-rule:evenodd;stroke:#000000;stroke-width:1.00312304px;stroke-linecap:butt;stroke-linejoin:miter;stroke-opacity:1;fill-opacity:1" />
    </g>
  </g>
</svg>
